<svg width="16" height="17" viewBox="0 0 16 17" fill="none" xmlns="http://www.w3.org/2000/svg">
<path d="M8 0.5C3.58873 0.5 0 4.08873 0 8.5C0 12.9113 3.589 16.5 8 16.5C12.411 16.5 16 12.9113 16 8.5C16 4.08873 12.4113 0.5 8 0.5Z" fill="#008C56"/>
<path d="M11.5351 5.2013C11.7057 5.41094 11.8801 5.63393 12.0553 5.86681C12.0922 6.34164 12.102 6.77668 12.1394 7.25231C12.1341 7.45581 12.0716 7.7258 12.0123 7.75144C12.0123 7.75144 11.9218 7.80352 11.8612 7.74583C11.8171 7.72821 11.6411 7.45233 11.6411 7.45233C11.5511 7.36981 11.491 7.39331 11.4269 7.45233C11.2501 7.62299 11.1703 7.94265 11.0501 8.16271C11.0191 8.21185 10.9318 8.25378 10.8348 8.15897C10.633 7.88337 10.6933 7.51242 10.7048 7.45501L10.7021 7.46649C10.4829 7.71379 10.5798 8.12319 10.6295 8.21132C10.7019 8.35606 10.7603 8.44873 10.9011 8.52003C11.0293 8.61431 11.1291 8.55555 11.1842 8.48932C11.3131 8.35579 11.3148 8.01396 11.3754 7.94613C11.4178 7.82194 11.5241 7.84331 11.5762 7.89832C11.6264 7.9707 11.686 8.0177 11.7599 8.05695C11.8801 8.16298 12.0238 8.18247 12.1653 8.08553C12.262 8.03132 12.3248 7.96081 12.3814 7.82168C12.442 7.65931 12.4121 6.80766 12.3985 6.33389C12.4893 6.46182 12.579 6.59267 12.6682 6.72487C12.7075 7.14068 12.7251 7.55035 12.7123 7.94292C12.7029 8.0209 12.9847 7.70978 12.9828 7.56236C12.9815 7.43337 12.9831 7.3164 12.9828 7.20771C13.1198 7.42578 13.2511 7.64733 13.3767 7.87215C13.4542 7.83102 13.4277 7.39251 13.3786 7.33189C13.2477 7.11237 13.08 6.87496 12.9502 6.69122C12.9246 6.45941 12.8896 6.18594 12.8738 6.10235C12.849 5.97176 12.8242 5.77548 12.7868 5.62058C12.7766 5.55996 12.7454 5.36661 12.7553 5.34818C12.7705 5.30492 12.8282 5.34952 12.8567 5.29931C12.8992 5.25284 12.7093 4.76092 12.6129 4.62045C12.5782 4.55742 12.5154 4.57932 12.438 4.6816C12.3662 4.7489 12.3923 4.90273 12.4198 5.04881C12.4911 5.42136 12.555 5.80058 12.6054 6.179C12.512 6.04013 12.3982 5.87242 12.286 5.71058L12.2716 5.63687C12.2716 5.6302 12.2561 5.33216 12.243 5.26112C12.2406 5.23228 12.234 5.224 12.2641 5.22774C12.2962 5.25471 12.3005 5.25605 12.3205 5.26513C12.3528 5.271 12.3811 5.21626 12.3616 5.16578L12.0614 4.6111C12.0494 4.59935 12.0358 4.5868 12.0203 4.5844C12.0048 4.58199 11.9877 4.58974 11.9688 4.61778C11.9453 4.63823 11.9264 4.66352 11.9136 4.69191C11.9007 4.72029 11.8941 4.75112 11.8943 4.78229C11.9031 4.91341 11.9266 5.04774 11.9354 5.17914L11.945 5.23175C11.9344 5.21819 11.9233 5.20509 11.9116 5.19249C11.6558 4.92383 12.0291 5.14869 11.8628 4.94092C11.722 4.78656 11.6809 4.73742 11.5607 4.64448C11.5004 4.60549 11.4638 4.53098 11.444 4.65784C11.4363 4.76947 11.428 4.89846 11.4355 4.99246C11.4341 5.04507 11.4883 5.14335 11.5351 5.2013ZM5.2349 7.1754C5.23196 7.224 5.36896 7.28302 5.37724 7.39519C5.39674 7.44139 5.34787 7.58987 5.38873 7.60349C5.42611 7.61898 5.47819 7.50094 5.49769 7.39118C5.50863 7.33109 5.45068 7.12092 5.35241 7.08326C5.33707 7.07987 5.32135 7.07861 5.30567 7.07952C5.25813 7.08299 5.21567 7.10836 5.2349 7.1754Z" fill="white"/>
<path d="M11.9493 6.36103C11.9458 6.36047 11.9421 6.36084 11.9387 6.36209C11.9387 6.36209 11.3554 6.77684 11.341 6.79153C11.283 6.8428 11.3121 7.0236 11.341 7.00277C11.3829 7.01879 11.9699 6.62087 11.9587 6.57441C11.9843 6.57574 11.9969 6.36957 11.9493 6.36103ZM13.0216 5.41537C13.0421 5.4784 12.9903 5.68163 13.0331 5.70032C13.0723 5.72142 13.1273 5.55985 13.1479 5.41057C13.1591 5.32885 13.0988 5.04203 12.9959 4.99075C12.9878 4.98857 12.9795 4.98732 12.9711 4.98701C12.9124 4.98488 12.8483 5.02947 12.8736 5.11707C12.8587 5.16487 12.9989 5.32671 13.0216 5.41537ZM11.6211 6.36583C11.6233 6.24753 11.6348 6.08996 11.6412 5.99195C11.6438 5.9551 11.6526 5.91424 11.6879 5.90489C11.7234 5.89554 11.7848 5.94041 11.7854 5.90195C11.779 5.82664 11.7637 5.71555 11.7213 5.66294C11.7106 5.64755 11.6966 5.63488 11.6801 5.62593C11.6637 5.61698 11.6454 5.612 11.6267 5.61139C11.565 5.60846 11.4991 5.64852 11.4823 5.73291C11.4825 5.78258 11.5047 5.81009 11.5004 5.85522C11.494 5.88112 11.4673 5.89795 11.4037 5.86777C11.4136 5.85869 11.3626 5.78658 11.3626 5.78658C11.3132 5.75641 11.247 5.78819 11.204 5.81623C11.1885 5.84558 11.1793 5.8778 11.1768 5.91087C11.1743 5.94395 11.1787 5.97718 11.1896 6.00851C11.2609 6.13964 11.5047 6.3637 11.6211 6.36583ZM9.14096 7.13843L9.14203 7.13737L9.1431 7.1363L9.14416 7.13523V7.13336C9.1444 7.13012 9.14404 7.12686 9.1431 7.12375L9.08755 7.09116L7.99475 7.08636C7.98417 7.08276 7.97419 7.07763 7.9651 7.07114L7.96323 7.06927L7.96243 7.0682L7.96136 7.06713L7.96056 7.06526L7.95949 7.06419V7.06312L7.95843 7.06206V7.05351L7.95949 7.05244L7.96056 7.05057C7.9659 7.04336 7.97872 7.03668 7.99501 7.03054C8.25593 6.99502 8.71954 6.91891 8.75025 6.47319C8.74545 6.24085 8.65091 6.08889 8.36596 6.0467C8.15658 6.06299 8.0073 6.26542 8.03133 6.48841C8.02145 6.5485 8.05163 6.66628 7.99021 6.67963C7.58855 6.71621 7.15004 6.96805 7.13535 7.14805H7.13428L7.13322 7.14912L7.13135 7.15018H7.12948L7.12654 7.15125H7.12093C7.11967 7.15093 7.11843 7.15058 7.11719 7.15018C7.09102 7.14297 7.05737 7.09971 7.06271 7.03935C7.04749 6.72796 6.94601 6.37571 6.78738 6.10438C6.73076 6.04777 6.70592 6.0248 6.6899 6.02213H6.68215C6.68055 6.02266 6.67895 6.024 6.67735 6.02507L6.67441 6.02694C6.66212 6.03628 6.6477 6.05738 6.61512 6.08035C6.56038 6.14257 6.5505 6.1861 6.55397 6.31082C6.55717 6.32391 6.65785 6.60432 6.74331 6.80141C6.801 7.00624 6.85414 7.24072 6.81515 7.46211C6.68028 7.7548 6.40922 8.01732 6.14777 8.1602C6.01451 8.20293 5.89941 8.18824 5.86869 8.15913L5.86763 8.15806C5.84236 8.14055 5.82221 8.11662 5.80925 8.08874C5.7963 8.06086 5.79101 8.03003 5.79392 7.99943V7.99836L5.79499 7.99729C6.01558 7.84347 6.26795 7.71902 6.4653 7.30401C6.52352 7.14538 6.54141 7.05004 6.48346 6.80488C6.46076 6.71354 6.43299 6.63823 6.37076 6.5736L6.37183 6.57254C6.40949 6.55464 6.50696 6.62648 6.52192 6.58108C6.49895 6.46411 6.41964 6.30681 6.32964 6.22643C6.25112 6.15512 6.1654 6.14685 6.09356 6.21201C6.01237 6.25714 5.99528 6.41925 6.03427 6.56105C6.07753 6.66788 6.19477 6.68657 6.2781 6.90155V6.90262C6.27996 6.91597 6.30667 7.06312 6.26474 7.12241C6.23056 7.2287 5.79285 7.57401 5.76187 7.59484C5.76093 7.59552 5.75995 7.59614 5.75893 7.59671L5.75787 7.59777L5.7568 7.59884L5.75573 7.59991H5.75359L5.75279 7.59884V7.59777L5.75172 7.59591C5.75039 7.58736 5.75279 7.56546 5.75172 7.52994C5.74879 7.46531 5.77549 7.31897 5.77362 7.29386V7.29279L5.77282 7.29173V7.29066H5.77175C5.62701 7.38413 5.5792 7.67068 5.55277 7.75534C5.18636 8.00851 4.77028 8.19679 4.53073 8.45343C4.40602 8.64838 5.39066 8.22963 5.50496 8.17889L5.5079 8.18183C5.52953 8.20587 5.5314 8.28919 5.59683 8.3645C5.69911 8.5031 5.91677 8.58856 6.12854 8.53568C6.48346 8.40749 6.68803 8.16527 6.89634 7.89688C6.92598 7.85362 6.97271 7.81943 7.01598 7.85281C7.15912 8.17328 7.57173 8.40109 8.10504 8.42459C8.22842 8.2745 8.1694 8.20079 8.11946 8.16928C8.10397 8.15913 7.85427 8.06165 7.81528 7.96471C7.79098 7.87445 7.85027 7.79433 7.96911 7.73424C8.31148 7.69285 8.64824 7.64691 8.97405 7.54196C8.97725 7.43246 9.04188 7.26876 9.08488 7.19772C9.11452 7.15018 9.13375 7.14538 9.14096 7.13843ZM8.23964 6.45209C8.24049 6.44875 8.24174 6.44552 8.24338 6.44248C8.24391 6.44141 8.24445 6.43954 8.24525 6.43874L8.24605 6.43767C8.24751 6.43594 8.24912 6.43433 8.25085 6.43287C8.25898 6.42692 8.26859 6.42331 8.27863 6.42245C8.30868 6.42145 8.33835 6.42944 8.36382 6.44542C8.40735 6.47052 8.43406 6.50871 8.43085 6.53622V6.53916L8.42898 6.54209L8.42791 6.54503L8.42685 6.5469L8.42578 6.54877C8.4242 6.55123 8.42232 6.55347 8.42017 6.55545C8.39934 6.57494 8.351 6.57227 8.30534 6.54583C8.26207 6.52099 8.23563 6.48254 8.2383 6.45503C8.23884 6.45423 8.23964 6.4529 8.23964 6.45209ZM7.80273 7.54677C7.68549 7.58682 7.57279 7.61834 7.57226 7.78765C7.58775 7.87151 7.58428 7.91557 7.57146 7.93587L7.56772 7.94068L7.56665 7.94175L7.56558 7.94281L7.56478 7.94388L7.56371 7.94495L7.56184 7.94602C7.55997 7.94716 7.55801 7.94814 7.55597 7.94896L7.55036 7.95002C7.52259 7.95403 7.48199 7.92759 7.45182 7.91183C7.37944 7.86003 7.17675 7.73424 7.14764 7.46425C7.14363 7.40336 7.18903 7.35075 7.26247 7.34567H7.27476C7.39654 7.37879 7.576 7.38226 7.73169 7.39828C7.85881 7.40549 7.92157 7.5051 7.80273 7.54677Z" fill="white"/>
<path d="M7.4355 6.49014C7.56128 6.55023 7.86119 6.51471 7.78828 6.32083C7.78705 6.28925 7.78482 6.25773 7.78161 6.22629C7.76879 6.19638 7.74502 6.18516 7.72232 6.1889C7.69962 6.19291 7.67772 6.2116 7.66971 6.24231C7.66464 6.26261 7.67932 6.29626 7.66116 6.30641C7.65075 6.31709 7.60989 6.31095 7.61149 6.25486C7.61149 6.23697 7.59841 6.21748 7.59039 6.20599C7.58238 6.20065 7.57811 6.19932 7.56369 6.19932C7.54606 6.20012 7.54553 6.20466 7.53591 6.21935C7.53191 6.2343 7.5263 6.24926 7.5263 6.26608C7.52416 6.28611 7.51722 6.29279 7.50253 6.29572C7.48624 6.29572 7.48998 6.29759 7.47663 6.28905C7.46862 6.2805 7.45847 6.27703 7.45847 6.26234C7.45865 6.24547 7.45603 6.22869 7.45072 6.21267C7.44378 6.20359 7.43176 6.19958 7.41921 6.19638C7.35058 6.19665 7.3463 6.27463 7.35031 6.30454C7.34523 6.31015 7.34176 6.45115 7.4355 6.49014ZM11.9758 11.7213C11.9007 11.7325 11.6897 11.7539 11.6897 11.7539C11.4459 11.7248 11.267 11.7218 10.9927 11.7117C11.0181 11.6796 11.0627 11.5493 11.0079 11.5023C10.9938 11.4905 10.9724 11.4839 10.943 11.486H10.9401L10.939 11.4849L10.9361 11.4839C10.9343 11.4825 10.9327 11.4809 10.9313 11.4791L10.9294 11.4772C10.9155 11.4569 10.9081 11.4075 10.8987 11.3949L10.8976 11.3939L10.8968 11.3928L10.895 11.3917H10.8928L10.892 11.3925C10.7107 11.439 10.7163 11.6273 10.8327 11.7101C8.91767 11.7101 5.97843 11.6775 5.34817 11.6775C4.99565 11.6775 3.87989 11.6353 3.85852 11.6353C4.0978 11.9851 4.44445 12.0564 4.89791 12.0637C5.74849 12.0637 9.69001 12.0532 10.8117 12.0532C10.7318 12.1948 10.8189 12.4226 10.8814 12.4645L10.8862 12.4674C10.8886 12.4685 10.8915 12.4698 10.8939 12.4704H10.8968C10.9711 12.488 11.0037 12.4341 11.0288 12.3948C11.1492 12.4055 11.8273 12.4151 11.8892 12.3937L11.8903 12.3927C11.9322 12.4544 11.9739 12.5128 12.0537 12.5027C12.1934 12.4728 12.3037 12.4576 12.3072 12.1737C12.3074 12.1745 12.293 11.6911 11.9758 11.7213ZM11.839 12.2396L11.8342 12.2415H11.8267L11.5925 12.2348C11.5926 12.2303 11.592 12.2258 11.5907 12.2215C11.569 12.1577 11.4131 12.1619 11.3765 12.2119L11.3746 12.2148L11.3727 12.2185L11.3709 12.2234L11.3698 12.23C11.3695 12.2324 11.3687 12.2354 11.3687 12.2378C11.2462 12.2525 11.1356 12.2338 11.013 12.2292C10.977 12.1844 10.9812 12.1034 11.0234 12.0839H11.0242C11.3036 12.0976 11.5661 12.0866 11.8457 12.1002C11.89 12.1376 11.8679 12.2239 11.839 12.2396ZM8.55848 8.35768C8.55848 8.36249 8.60762 8.40468 8.66557 8.37103C8.78762 8.32457 8.86373 8.27917 9.03465 8.24205C9.07951 8.24124 9.07684 8.12107 9.00607 8.1168C8.9134 8.12134 8.82794 8.12614 8.73554 8.19905C8.67866 8.21213 8.66878 8.17742 8.65622 8.14644C8.6418 8.06926 8.6888 8.01505 8.67919 7.95709C8.68186 7.95977 8.65035 7.93146 8.61029 7.92932C8.59572 7.9284 8.58116 7.93135 8.56809 7.93787C8.56516 7.93787 8.43937 8.02306 8.39878 8.08234C8.37394 8.10104 8.37688 8.1176 8.38436 8.15018C8.40359 8.19451 8.4375 8.18062 8.47623 8.15979C8.5275 8.15285 8.55207 8.18623 8.54807 8.24765C8.5243 8.32457 8.55848 8.35288 8.55848 8.35768ZM12.7809 8.32724C12.7572 8.3 12.7032 8.31629 12.6672 8.31201C12.6501 8.31201 12.5935 8.30374 12.6204 8.2538C12.6429 8.22282 12.6511 8.20412 12.6664 8.16593C12.6835 8.12855 12.6685 8.10318 12.6071 8.08288C12.5822 8.07783 12.5569 8.07559 12.5315 8.0762C12.5088 8.077 12.4848 8.07994 12.4503 8.08288C12.4129 8.09089 12.3998 8.10718 12.3929 8.15258C12.3956 8.22148 12.4378 8.21801 12.4808 8.24525C12.5059 8.27703 12.5219 8.30587 12.4789 8.35795C12.438 8.39534 12.4089 8.41617 12.3681 8.45356C12.3488 8.4864 12.3368 8.53715 12.3958 8.5529C12.5048 8.58361 12.7572 8.41964 12.7572 8.41617C12.798 8.38546 12.7844 8.32724 12.7809 8.32724ZM10.8314 8.00143C10.919 8.00196 11.0205 7.80087 11.0638 7.60164C11.0875 7.32737 11.048 7.16046 11.0408 6.99916C11.0336 6.83785 10.8584 5.53007 10.8229 5.40802C10.7799 5.17728 10.9935 5.37758 10.97 5.24351C10.8963 5.07447 10.712 4.82824 10.6546 4.68136C10.633 4.6421 10.6303 4.60551 10.6124 4.60872C10.6017 4.61059 10.586 4.62688 10.5569 4.66507C10.485 4.90034 10.4597 5.09263 10.4872 5.23871C10.6722 6.20412 10.8616 7.08301 10.8314 8.00143Z" fill="white"/>
<path d="M13.5648 5.44744C13.5566 5.38655 13.5296 5.24661 13.54 5.22845C13.5568 5.18572 13.641 5.23272 13.6711 5.18358C13.7152 5.13872 13.4532 4.80302 13.3613 4.65961C13.3429 4.62356 13.3317 4.59392 13.3154 4.59552C13.3029 4.59686 13.2874 4.61715 13.2639 4.66709C13.207 4.76003 13.1875 4.92641 13.2102 5.07356C13.3469 5.99758 13.4484 6.89249 13.4692 7.71156C13.4575 7.78927 13.454 7.83067 13.4177 7.92868C13.337 8.03203 13.2481 8.16155 13.1643 8.22404C13.0804 8.28653 12.9023 8.34609 12.8438 8.39229C12.659 8.49911 12.6579 8.62223 12.8075 8.6265C13.0652 8.59659 13.3699 8.57549 13.5801 8.25849C13.6362 8.16956 13.7024 7.92868 13.7053 7.78126C13.7251 6.91706 13.6944 6.07209 13.5648 5.44744ZM11.8615 7.48723C11.9008 7.50833 12.0039 7.38147 12.0002 7.22231C12.0116 7.14059 11.971 6.83935 11.8682 6.78807C11.856 6.78481 11.8434 6.78382 11.8308 6.78513C11.7772 6.79181 11.7261 6.84255 11.7497 6.92374C11.735 6.97154 11.8226 7.13818 11.8453 7.22685C11.8658 7.29014 11.8191 7.46827 11.8615 7.48723ZM3.74671 4.92828C3.8725 4.98836 4.10858 4.96299 4.0987 4.76003C4.09772 4.72846 4.09576 4.69693 4.09282 4.66549C4.08 4.63558 4.0565 4.62436 4.0338 4.62837C4.0111 4.63238 3.9892 4.65107 3.98119 4.68178C3.97612 4.70208 3.99 4.73573 3.97158 4.74587C3.96116 4.75656 3.9211 4.74935 3.9227 4.69326C3.9227 4.67537 3.90962 4.65668 3.90161 4.64546C3.8936 4.64039 3.88825 4.63878 3.87383 4.63878C3.85621 4.63959 3.85674 4.64413 3.84713 4.65881C3.84285 4.67377 3.83725 4.68846 3.83725 4.70555C3.83511 4.72558 3.8271 4.73225 3.81241 4.73519C3.79612 4.73519 3.79986 4.73706 3.7865 4.72852C3.77876 4.71997 3.76941 4.7165 3.76941 4.70181C3.76922 4.6849 3.76634 4.66814 3.76087 4.65214C3.75392 4.64306 3.74297 4.63825 3.73015 4.63505C3.66152 4.63531 3.65645 4.71436 3.66045 4.74401C3.65565 4.74935 3.65297 4.88928 3.74671 4.92828ZM5.6479 5.58524C5.62672 5.58492 5.60598 5.59128 5.58861 5.6034C5.47725 5.66349 5.43425 5.84215 5.50342 5.94657C5.56805 6.0387 5.6706 6.00479 5.68422 6.00479C5.79318 6.01841 5.85834 5.80022 5.85834 5.80022C5.85834 5.80022 5.86155 5.7388 5.73202 5.8547C5.67754 5.86485 5.67007 5.84535 5.65645 5.81464C5.64348 5.75723 5.64948 5.69717 5.67354 5.64346C5.68582 5.60954 5.67381 5.58791 5.6479 5.58524ZM10.1743 7.8053C9.97184 8.01654 9.68021 8.27719 9.36242 8.3971C9.32823 8.43555 9.44734 8.59899 9.60143 8.59873C9.85914 8.56881 10.0856 8.42407 10.2955 8.04324C10.3516 7.95431 10.4504 7.76417 10.4533 7.61675C10.4731 6.75255 10.4098 6.08063 10.2803 5.45598C10.272 5.39509 10.2776 5.32325 10.288 5.30483C10.3046 5.2848 10.3612 5.30536 10.3914 5.25596C10.4355 5.21109 10.2739 4.83828 10.182 4.6946C10.1636 4.65855 10.1524 4.62997 10.1361 4.63157C10.1235 4.63291 10.108 4.6524 10.0845 4.70234C10.0279 4.79528 9.9892 4.95712 9.99374 5.10881C10.1166 5.95992 10.1542 6.70448 10.2346 7.5556C10.241 7.63812 10.229 7.75749 10.1743 7.8053ZM3.1672 6.52929C2.86489 6.5349 2.42264 6.92534 2.41089 7.14219C2.72975 6.98917 3.04301 6.84175 3.36696 6.68312C3.31461 6.60514 3.36375 6.5349 3.1672 6.52929ZM2.58127 8.13271C2.50169 8.29401 2.46884 8.18372 2.46163 8.09345C2.44934 7.92253 2.4659 7.76497 2.4846 7.64025C2.49448 7.57643 2.49421 7.55399 2.48646 7.55426C2.47899 7.55453 2.4635 7.57723 2.44347 7.60313C2.26374 7.88942 2.24771 8.31698 2.34679 8.44463C2.3994 8.50499 2.48646 8.53143 2.55056 8.51247C2.66352 8.46359 2.7132 8.23473 2.68622 8.15114C2.64857 8.09185 2.61893 8.0825 2.58127 8.13271Z" fill="white"/>
<path d="M2.61666 6.2683C2.98386 6.30355 2.78117 5.64739 2.91416 5.52828C2.93927 5.46953 2.98573 5.46846 2.98974 5.5427V6.10006C2.98627 6.28139 3.10564 6.33507 3.19831 6.37246C3.29472 6.36498 3.35855 6.36765 3.3962 6.46139C3.41116 6.78266 3.42691 7.10473 3.44214 7.42627C3.44214 7.42627 3.66486 7.49036 3.67554 6.88414C3.68623 6.52815 3.60477 6.22958 3.65258 6.16041C3.65418 6.09231 3.74151 6.08911 3.8016 6.12222C3.89747 6.19005 3.9402 6.27338 4.08949 6.23973C4.31648 6.17724 4.45322 6.06694 4.45669 5.89255C4.44334 5.72697 4.42411 5.56113 4.35254 5.39529C4.36269 5.36511 4.30901 5.28686 4.31916 5.25669C4.36002 5.32051 4.42171 5.31517 4.43586 5.25669C4.39714 5.1293 4.33705 5.00725 4.23984 4.95464C4.15945 4.88387 4.04195 4.89883 3.99895 5.04651C3.97892 5.21663 4.06064 5.41826 4.18456 5.58303C4.211 5.64739 4.24758 5.75448 4.23129 5.85062C4.16533 5.88828 4.10017 5.87252 4.04489 5.8143C4.04489 5.8143 3.86409 5.6789 3.86409 5.64899C3.91216 5.34188 3.8745 5.30689 3.8478 5.2217C3.8291 5.10419 3.77355 5.06681 3.72815 4.98642C3.68302 4.93862 3.6216 4.93862 3.59249 4.98642C3.51264 5.12503 3.55003 5.42226 3.60771 5.55526C3.64937 5.67784 3.71347 5.75422 3.68329 5.75422C3.65845 5.82338 3.60691 5.80736 3.56952 5.72751C3.51638 5.56247 3.50543 5.31651 3.50543 5.20541C3.4894 5.06788 3.47151 4.77411 3.38125 4.6996C3.35721 4.66675 3.32864 4.65527 3.30086 4.65848C3.26534 4.66275 3.23196 4.69159 3.21567 4.73031C3.20785 4.86323 3.21071 4.99657 3.22422 5.12903C3.28617 5.34962 3.30594 5.54377 3.33611 5.7697C3.34439 6.07228 3.16146 5.90056 3.16974 5.75048C3.21193 5.55552 3.20071 5.24894 3.16306 5.17096C3.13315 5.09325 3.0987 5.07402 3.02633 5.08684C2.96891 5.08336 2.82016 5.2452 2.77876 5.51333C2.77876 5.51333 2.74405 5.65086 2.72909 5.77344C2.70879 5.91178 2.61693 6.00979 2.5531 5.75422C2.49782 5.56834 2.4639 5.1106 2.3715 5.21769C2.34453 5.57475 2.31301 6.20367 2.61666 6.2683Z" fill="white"/>
<path d="M2.73392 4.92159C2.75315 4.96966 2.71469 5.12429 2.75502 5.13871C2.79187 5.15473 2.84288 5.03162 2.86211 4.91785C2.87279 4.85563 2.86478 4.64225 2.71977 4.59845C2.71221 4.59678 2.70453 4.5958 2.6968 4.59551C2.64125 4.59391 2.58009 4.62836 2.60413 4.69486C2.59024 4.73145 2.71256 4.85403 2.73392 4.92159ZM4.83113 7.70354C4.96199 7.2677 4.82846 6.93895 4.87226 6.89836L4.87413 6.89729L4.876 6.89622L4.87786 6.89515L4.88347 6.89408C5.04504 7.06821 5.27178 6.91625 5.32145 6.85589C5.34281 6.82572 5.39596 6.80622 5.43335 6.84548C5.5594 6.93601 5.78025 6.89328 5.82646 6.73358C5.85316 6.57735 5.87559 6.41658 5.88093 6.24967C5.79895 6.27504 5.73272 6.29427 5.70601 6.32231C5.69978 6.32866 5.69544 6.33661 5.69346 6.34528L5.67236 6.48388C5.67168 6.48753 5.67042 6.49105 5.66862 6.4943C5.66471 6.5002 5.65951 6.50513 5.6534 6.50872C5.62429 6.52448 5.57382 6.5154 5.57115 6.47347C5.53216 6.29587 5.37139 6.27291 5.27364 6.54798C5.20795 6.60112 5.08831 6.61154 5.07575 6.53169C5.09178 6.34715 5.01727 6.32231 4.86825 6.40937C4.82045 6.04377 4.77291 5.69446 4.72484 5.32886C4.78706 5.32699 4.84395 5.37212 4.90083 5.30108C4.83941 5.10987 4.70935 4.72076 4.63591 4.68444L4.63404 4.68338C4.63091 4.67958 4.62742 4.67609 4.62362 4.67296L4.61882 4.66922L4.61401 4.66628C4.61095 4.66469 4.60773 4.66344 4.6044 4.66254C4.59772 4.66067 4.59131 4.65987 4.58437 4.66067C4.56621 4.66308 4.54591 4.67349 4.52214 4.67883C4.44416 4.70367 4.37099 4.77124 4.39395 4.90263C4.48636 5.46345 4.54644 5.89155 4.63858 6.45264C4.65273 6.51833 4.59772 6.60486 4.52668 6.59605C4.40597 6.51433 4.37606 6.34902 4.17016 6.35596C4.02114 6.35783 3.85102 6.51994 3.82966 6.67616C3.80482 6.80035 3.79601 6.93494 3.82966 7.04337C3.93435 7.16942 4.06013 7.15607 4.17016 7.12749C4.26069 7.09037 4.3352 7.00091 4.36698 7.02227H4.36805V7.02334C4.38781 7.05779 4.36618 7.34969 3.94156 7.57508C3.68064 7.69232 3.47287 7.72036 3.36124 7.50725C3.29207 7.37399 3.36631 6.86711 3.19593 6.98435C2.69173 8.28359 4.37686 8.46519 4.56514 7.03776C4.57742 6.99744 4.61455 6.95711 4.64072 6.96699C4.6522 6.9718 4.66262 6.98755 4.66662 7.01666C4.62763 8.30896 3.36311 8.39762 3.14813 7.99089C3.09498 7.89502 3.07896 7.68191 3.07362 7.55398C3.064 7.47654 3.04451 7.43194 3.02208 7.41431C2.9708 7.37586 2.9019 7.47627 2.88721 7.65039C2.86585 7.7906 2.87199 7.82905 2.87199 7.96392C2.93929 8.98515 4.56647 8.54664 4.83113 7.70354ZM4.20247 6.82038V6.82144C4.20221 6.82198 4.20194 6.82305 4.20141 6.82331C4.18885 6.8396 4.14426 6.83293 4.11248 6.83293C4.07402 6.83133 4.05532 6.82492 4.03209 6.79367C4.02114 6.75895 4.05452 6.72477 4.06948 6.69913L4.07028 6.69806C4.07227 6.69529 4.07451 6.6927 4.07696 6.69032C4.09515 6.67485 4.11824 6.66634 4.14212 6.66628C4.17176 6.66655 4.20301 6.68124 4.21957 6.72263C4.22564 6.73898 4.22726 6.75664 4.22426 6.77382C4.22126 6.791 4.21374 6.80706 4.20247 6.82038ZM9.58317 5.84561C9.70895 5.9057 9.9461 5.87926 9.93595 5.6763C9.93471 5.64472 9.93248 5.61319 9.92927 5.58176C9.91645 5.55185 9.89268 5.54063 9.86999 5.54437C9.84729 5.54838 9.82539 5.56787 9.81737 5.59885C9.8123 5.61915 9.82699 5.65173 9.80883 5.66188C9.79841 5.67256 9.75755 5.66642 9.75916 5.61033C9.75916 5.59244 9.74607 5.57295 9.73806 5.56146C9.73005 5.55639 9.72471 5.55479 9.71028 5.55479C9.69266 5.55559 9.69319 5.56013 9.68358 5.57482C9.67957 5.58977 9.67396 5.60473 9.67396 5.62155C9.67183 5.64158 9.66488 5.64826 9.6502 5.65119C9.63391 5.65119 9.63684 5.65306 9.62349 5.64452C9.61548 5.63597 9.6064 5.6325 9.6064 5.61781C9.60621 5.60091 9.60332 5.58414 9.59785 5.56814C9.59091 5.55906 9.57996 5.55505 9.56714 5.55185C9.49851 5.55212 9.4945 5.6301 9.49824 5.66001C9.4929 5.66588 9.48943 5.80689 9.58317 5.84561ZM9.66809 5.05886C9.71295 5.18464 9.63391 5.30455 9.68064 5.32191C9.72364 5.34141 9.78346 5.19212 9.80589 5.05432C9.8318 4.94269 9.75221 4.71435 9.63951 4.66708C9.63074 4.66515 9.62179 4.66417 9.61281 4.66415C9.54845 4.66228 9.47688 4.70287 9.50465 4.78379C9.48836 4.82759 9.64325 4.97687 9.66809 5.05886Z" fill="white"/>
<path d="M4.9815 5.664H4.98257L4.98363 5.66507H4.9847L4.98577 5.66614C5.00954 5.68216 5.30411 5.68189 5.33669 5.66721L5.33749 5.66614H5.33856V5.66507C5.43977 5.62768 5.91994 5.07888 5.91994 5.07888C5.8951 5.05751 5.87214 5.04176 5.8473 5.02066C5.8206 4.99769 5.82327 4.97499 5.8473 4.95176C5.96614 4.88259 5.92849 4.73037 5.86653 4.6612C5.8217 4.64033 5.77252 4.63053 5.72312 4.63262C5.68303 4.6348 5.64387 4.64555 5.60828 4.66414C5.52496 4.74399 5.5052 4.87217 5.5709 4.95202C5.63472 4.9822 5.69855 5.04656 5.65609 5.08208C5.47529 5.27516 5.00473 5.59777 4.98096 5.65679L4.98016 5.65866V5.6616L4.98096 5.66347L4.9815 5.664ZM5.69348 4.80354L5.69908 4.80247C5.72846 4.79953 5.76398 4.82651 5.78134 4.8647C5.79977 4.90529 5.79068 4.94428 5.76024 4.95176C5.73006 4.95924 5.69081 4.93226 5.67238 4.8914C5.65395 4.85081 5.6633 4.81102 5.69348 4.80354ZM8.50186 5.10718C8.71278 5.38954 8.91617 5.67744 9.11182 5.97058C9.14253 6.18957 9.16523 6.40375 9.17966 6.61687C9.21143 7.08449 9.22105 7.66667 9.19221 8.15913C9.2798 8.1626 9.42027 8.01759 9.46941 7.80527C9.50146 7.51151 9.45793 6.9125 9.45499 6.73918C9.45222 6.65661 9.44839 6.57408 9.44351 6.49162C9.68262 6.88226 9.90493 7.28294 10.1098 7.69258C10.1889 7.65492 10.1715 7.2092 10.125 7.14671C9.95119 6.77256 9.7111 6.40322 9.63446 6.26141C9.60695 6.21014 9.51268 6.06699 9.40105 5.90195C9.38048 5.66641 9.35805 5.46691 9.34363 5.40656C9.30784 5.15766 9.44591 5.4346 9.42695 5.28985C9.38208 5.04122 9.24482 4.87217 9.08271 4.64437C9.03037 4.5704 9.03144 4.55518 8.95079 4.66253C8.90245 4.77203 8.90325 4.86309 8.9174 4.94829C8.89085 4.90936 8.86242 4.87175 8.83221 4.83559C8.69227 4.71541 8.68373 4.709 8.56729 4.61099C8.5307 4.58509 8.461 4.54503 8.40759 4.54983C8.37554 4.55277 8.35017 4.57147 8.34056 4.61874C8.32774 4.72983 8.33442 4.79019 8.35311 4.88259C8.3678 4.94428 8.45753 5.04736 8.50186 5.10718ZM8.94838 5.09036C8.95372 5.1144 8.95906 5.13843 8.9628 5.163C8.97482 5.21588 8.98524 5.26849 8.99619 5.32083C8.96393 5.27513 8.93018 5.2305 8.89497 5.18704C8.79002 5.06232 8.89711 5.10505 8.94838 5.09036Z" fill="white"/>
<path d="M6.35676 5.98483C6.50364 6.04572 6.59684 5.76611 6.65693 5.45979C6.69806 5.3738 6.72957 5.36392 6.75067 5.40825C6.74533 5.81524 6.77978 5.90631 6.88446 6.02969C7.11787 6.20996 7.31096 6.05239 7.32618 6.03744L7.50778 5.85584C7.54837 5.81338 7.60178 5.8107 7.65893 5.84809C7.71448 5.89857 7.70727 5.98563 7.82638 6.04598C7.92653 6.08604 8.14017 6.0556 8.18985 5.9696C8.25661 5.8553 8.27263 5.81605 8.30361 5.77252C8.35115 5.70922 8.4326 5.73726 8.4326 5.75729C8.42512 5.79254 8.37705 5.82753 8.40963 5.89109C8.46625 5.93355 8.47934 5.90631 8.51299 5.8967C8.63156 5.84008 8.72049 5.58317 8.72049 5.58317C8.72583 5.4873 8.67109 5.49451 8.63637 5.51427C8.59097 5.54204 8.58803 5.55139 8.54263 5.57917C8.48468 5.58771 8.37251 5.6259 8.31696 5.53991C8.26035 5.43656 8.25981 5.29234 8.21655 5.18792C8.21655 5.18045 8.14071 5.02395 8.21094 5.0138C8.24619 5.02048 8.32231 5.03997 8.33432 4.97641C8.37145 4.91446 8.25421 4.739 8.17462 4.65034C8.10546 4.57449 8.00985 4.56514 7.91745 4.64259C7.85255 4.70215 7.86216 4.76864 7.84961 4.83194C7.83306 4.90431 7.83626 4.99431 7.90997 5.09018C7.9746 5.21757 8.0921 5.38127 8.05338 5.61228C8.05338 5.61228 7.98501 5.72231 7.8651 5.70789C7.81516 5.69694 7.73344 5.67531 7.69018 5.3551C7.65733 5.11261 7.69846 4.77318 7.59564 4.61402C7.57241 4.55393 7.55238 4.49571 7.51926 4.50025C7.49923 4.50292 7.47493 4.52856 7.44075 4.59025C7.41644 4.65461 7.31149 4.75235 7.38734 4.95371C7.44929 5.08137 7.47466 5.28861 7.44662 5.51988C7.40363 5.58557 7.39401 5.60827 7.33766 5.6737C7.25861 5.75863 7.17289 5.737 7.10719 5.70522C7.04577 5.66382 6.99743 5.64246 6.96939 5.51107C6.97446 5.30142 6.98675 4.95852 6.94829 4.88561C6.89194 4.77292 6.79874 4.81324 6.75895 4.84742C6.56773 5.02208 6.47346 5.31718 6.41578 5.55219C6.3629 5.72338 6.30628 5.6737 6.26676 5.6048C6.17008 5.51427 6.16341 4.80683 6.0467 4.923C5.85949 5.45712 6.15326 6.04171 6.35676 5.98483Z" fill="white"/>
<path d="M7.18392 4.97559C7.2563 4.78037 7.25656 4.69705 7.26137 4.61426C7.25015 4.55124 7.22265 4.52079 7.19167 4.52346C7.16069 4.52613 7.12597 4.56246 7.09793 4.63242C7.0739 4.68557 7.04425 4.96411 7.04933 4.96411C7.02983 5.0469 7.13559 5.08215 7.18392 4.97559ZM6.42842 4.92993C6.44623 4.91887 6.46155 4.90424 6.47341 4.88695C6.48527 4.86967 6.49341 4.85011 6.49732 4.82951C6.51441 4.74432 6.40758 4.86984 6.39396 4.77503C6.3702 4.6869 6.4383 4.65085 6.50292 4.56566C6.50426 4.5256 6.50506 4.49275 6.47916 4.49195C6.46741 4.49168 6.44951 4.49809 6.42468 4.51305C6.36886 4.55044 6.25777 4.66607 6.25456 4.7988C6.25109 4.87385 6.23693 4.87358 6.28607 4.92111C6.32159 4.97239 6.35684 4.96732 6.42842 4.92993Z" fill="white"/>
</svg>
