<svg width="56" height="56" viewBox="0 0 56 56" fill="none" xmlns="http://www.w3.org/2000/svg">
<path d="M10.6939 40.416C8.29052 37.8633 7.00018 35.0003 7.00018 30.3593C7.00018 22.1927 12.7332 14.873 21.0702 11.254L23.1539 14.4693C15.3722 18.6787 13.8509 24.141 13.2442 27.585C14.4972 26.9363 16.1375 26.71 17.7452 26.8593C21.9545 27.249 25.2725 30.7047 25.2725 35.0003C25.2725 37.1663 24.4121 39.2435 22.8806 40.775C21.349 42.3066 19.2718 43.167 17.1058 43.167C14.6022 43.167 12.2082 42.0237 10.6939 40.416ZM34.0272 40.416C31.6238 37.8633 30.3335 35.0003 30.3335 30.3593C30.3335 22.1927 36.0665 14.873 44.4035 11.254L46.4872 14.4693C38.7055 18.6787 37.1842 24.141 36.5775 27.585C37.8305 26.9363 39.4708 26.71 41.0785 26.8593C45.2878 27.249 48.6035 30.7047 48.6035 35.0003C48.6035 37.1663 47.7431 39.2435 46.2116 40.775C44.68 42.3066 42.6028 43.167 40.4368 43.167C37.9332 43.167 35.5392 42.0237 34.0248 40.416H34.0272Z" fill="#FA8232"/>
</svg>
