<svg width="22" height="21" viewBox="0 0 22 21" fill="none" xmlns="http://www.w3.org/2000/svg">
<path opacity="0.2" d="M9 9V10.5C9 11.2956 8.68393 12.0587 8.12132 12.6213C7.55871 13.1839 6.79565 13.5 6 13.5C5.20435 13.5 4.44129 13.1839 3.87868 12.6213C3.31607 12.0587 3 11.2956 3 10.5V9" fill="white"/>
<g opacity="0.2">
<mask id="path-2-inside-1_2779_12250" fill="white">
<path d="M21 9V10.5C21 11.2956 20.6839 12.0587 20.1213 12.6213C19.5587 13.1839 18.7956 13.5 18 13.5C17.2044 13.5 16.4413 13.1839 15.8787 12.6213C15.3161 12.0587 15 11.2956 15 10.5V9"/>
</mask>
<path d="M21 9V10.5C21 11.2956 20.6839 12.0587 20.1213 12.6213C19.5587 13.1839 18.7956 13.5 18 13.5C17.2044 13.5 16.4413 13.1839 15.8787 12.6213C15.3161 12.0587 15 11.2956 15 10.5V9" fill="white"/>
<path d="M19.5 9V10.5H22.5V9H19.5ZM19.5 10.5C19.5 10.8978 19.342 11.2794 19.0607 11.5607L21.182 13.682C22.0259 12.8381 22.5 11.6935 22.5 10.5H19.5ZM19.0607 11.5607C18.7794 11.842 18.3978 12 18 12V15C19.1935 15 20.3381 14.5259 21.182 13.682L19.0607 11.5607ZM18 12C17.6022 12 17.2206 11.842 16.9393 11.5607L14.818 13.682C15.6619 14.5259 16.8065 15 18 15V12ZM16.9393 11.5607C16.658 11.2794 16.5 10.8978 16.5 10.5H13.5C13.5 11.6935 13.9741 12.8381 14.818 13.682L16.9393 11.5607ZM16.5 10.5V9H13.5V10.5H16.5Z" fill="white" mask="url(#path-2-inside-1_2779_12250)"/>
</g>
<path d="M4.5 13.0879V19.5004C4.5 19.6993 4.57902 19.8901 4.71967 20.0307C4.86032 20.1714 5.05109 20.2504 5.25 20.2504H18.75C18.9489 20.2504 19.1397 20.1714 19.2803 20.0307C19.421 19.8901 19.5 19.6993 19.5 19.5004V13.0879" stroke="white" stroke-width="1.5" stroke-linecap="round" stroke-linejoin="round"/>
<path d="M5.0625 3.75H18.9375C19.1002 3.75134 19.2582 3.8049 19.3881 3.9028C19.5181 4.00069 19.6132 4.13774 19.6594 4.29375L21 9H3L4.34062 4.29375C4.38682 4.13774 4.4819 4.00069 4.61187 3.9028C4.74183 3.8049 4.8998 3.75134 5.0625 3.75V3.75Z" stroke="white" stroke-width="1.5" stroke-linecap="round" stroke-linejoin="round"/>
<path d="M9 9V10.5C9 11.2956 8.68393 12.0587 8.12132 12.6213C7.55871 13.1839 6.79565 13.5 6 13.5C5.20435 13.5 4.44129 13.1839 3.87868 12.6213C3.31607 12.0587 3 11.2956 3 10.5V9" stroke="white" stroke-width="1.5" stroke-linecap="round" stroke-linejoin="round"/>
<path d="M15 9V10.5C15 11.2956 14.6839 12.0587 14.1213 12.6213C13.5587 13.1839 12.7956 13.5 12 13.5C11.2044 13.5 10.4413 13.1839 9.87868 12.6213C9.31607 12.0587 9 11.2956 9 10.5V9" stroke="white" stroke-width="1.5" stroke-linecap="round" stroke-linejoin="round"/>
<path d="M21 9V10.5C21 11.2956 20.6839 12.0587 20.1213 12.6213C19.5587 13.1839 18.7956 13.5 18 13.5C17.2044 13.5 16.4413 13.1839 15.8787 12.6213C15.3161 12.0587 15 11.2956 15 10.5V9" stroke="white" stroke-width="1.5" stroke-linecap="round" stroke-linejoin="round"/>
</svg>
