<svg width="72" height="72" viewBox="0 0 72 72" fill="none" xmlns="http://www.w3.org/2000/svg">
<path d="M7.33723 34.2811C7.33723 35.9206 6.54286 37.031 4.5311 37.031H3.89542V31.8096C4.12141 31.7969 4.33246 31.7969 4.5311 31.7969C6.43598 31.7967 7.33723 32.6953 7.33723 34.2811ZM5.27222 39.3044C8.87182 39.3044 11.1477 37.4534 11.1477 34.2289C11.1475 30.6857 8.71277 29.4171 4.74287 29.4171C3.20756 29.4171 1.35486 29.5225 0.0318604 29.6811V42.3188H3.8956V39.3044H5.27222ZM57.0403 34.2811C57.0403 35.9206 56.247 37.031 54.2347 37.031H53.6012V31.8096C53.8252 31.7969 54.0366 31.7969 54.2347 31.7969C56.1397 31.7967 57.0403 32.6953 57.0403 34.2811ZM54.9776 39.3044C58.5743 39.3044 60.8515 37.4534 60.8515 34.2289C60.8515 30.6857 58.4171 29.4171 54.4468 29.4171C52.9118 29.4171 51.0581 29.5225 49.7349 29.6811V42.3188H53.6006V39.3044H54.9776ZM65.8793 32.9064C65.8793 32.2193 66.5683 31.9016 67.6788 31.9016C68.8967 31.9016 70.221 32.1661 71.12 32.5377L70.8028 29.7872C69.7965 29.5757 68.8967 29.4171 67.2563 29.4171C64.133 29.4171 62.0163 30.6469 62.0163 33.2246C62.0163 37.6649 68.0516 36.7668 68.0516 38.8289C68.0516 39.6212 67.4684 40.044 66.0386 40.044C64.7701 40.044 62.8101 39.6212 61.6458 39.0399L62.0705 41.9489C63.2339 42.3718 64.8219 42.5826 66.0927 42.5826C69.3206 42.5826 71.9679 41.5249 71.9679 38.3519C71.9679 34.1234 65.8793 34.9158 65.8793 32.9064ZM46.8248 29.6811H42.961V42.3188H46.8248V29.6811ZM31.1562 29.6811H27.2921V42.3188H31.1562V29.6811ZM37.8786 39.78V29.6811H34.0145V42.3188H41.0023L41.584 39.78H37.8786ZM24.434 29.6811H20.5699V34.7042H16.5469V29.6811H12.6821V42.3188H16.5468V37.348H20.5697V42.3188H24.4338L24.434 29.6811Z" fill="white"/>
</svg>
